<svg xmlns="http://www.w3.org/2000/svg" viewBox="0 373 900 98" width="900" height="98" role="img" aria-label="stacked row hit-test raster, 1px steps, coloured by the resolved grab area">
  <title>図 F-023 -- 積んだ行の応え方（hitAt を 1px 刻みで塗る）</title>
  <!-- GENERATED ARTIFACT: do not hand-edit.
     source: previous-project-result/16-grab-area-sizing/grab-area-sizing-sample.html (behaviour)
             + docs/spec/_source/settings.json (values, gated: see the probe's settings-gate)
     regenerate: node tools/probe/grab-figures.mjs
     produced this file: docs/spec/_assets/fig-hit-stacked-row.svg
-->
  <style>
    :root { --ink:#16181d; --ink2:#55606f; --rule:#d7dde7; --ground:#fdfdfd;
    --plan:#bcd8f5; --plan-edge:#3b6fb5; --actual:#4a8fe0; --actual-edge:#2d5f9e;
    --ms:#f0b429; --ms-edge:#946200; --dummy:#8e44ad; --dummy-edge:#5b2c6f; --ms-dummy:#e3c496;
    --arrow-plan:#5390d4; --arrow-actual:#10366b; --ms-actual:#8a5a00;
    --dep:#4b5563; --dep-picked:#d0342c; }
    svg { background: var(--ground); }
    text { font-family: "Yu Gothic UI", "Yu Gothic", YuGothic, "BIZ UDPGothic", sans-serif; fill: var(--ink); }
    .band-bg { fill: var(--ground); }
    
  </style>
  <rect class="band-bg" x="0" y="373" width="900" height="98"/>
  <g data-layer="guide"><line x1="120" y1="30" x2="120" y2="466" stroke="#c9d3e0" stroke-width="1"></line><line x1="132" y1="30" x2="132" y2="466" stroke="#eef1f6" stroke-width="1"></line><line x1="144" y1="30" x2="144" y2="466" stroke="#eef1f6" stroke-width="1"></line><line x1="156" y1="30" x2="156" y2="466" stroke="#eef1f6" stroke-width="1"></line><line x1="168" y1="30" x2="168" y2="466" stroke="#eef1f6" stroke-width="1"></line><line x1="180" y1="30" x2="180" y2="466" stroke="#eef1f6" stroke-width="1"></line><line x1="192" y1="30" x2="192" y2="466" stroke="#eef1f6" stroke-width="1"></line><line x1="204" y1="30" x2="204" y2="466" stroke="#c9d3e0" stroke-width="1"></line><line x1="216" y1="30" x2="216" y2="466" stroke="#eef1f6" stroke-width="1"></line><line x1="228" y1="30" x2="228" y2="466" stroke="#eef1f6" stroke-width="1"></line><line x1="240" y1="30" x2="240" y2="466" stroke="#eef1f6" stroke-width="1"></line><line x1="252" y1="30" x2="252" y2="466" stroke="#eef1f6" stroke-width="1"></line><line x1="264" y1="30" x2="264" y2="466" stroke="#eef1f6" stroke-width="1"></line><line x1="276" y1="30" x2="276" y2="466" stroke="#eef1f6" stroke-width="1"></line><line x1="288" y1="30" x2="288" y2="466" stroke="#c9d3e0" stroke-width="1"></line><line x1="300" y1="30" x2="300" y2="466" stroke="#eef1f6" stroke-width="1"></line><line x1="312" y1="30" x2="312" y2="466" stroke="#eef1f6" stroke-width="1"></line><line x1="324" y1="30" x2="324" y2="466" stroke="#eef1f6" stroke-width="1"></line><line x1="336" y1="30" x2="336" y2="466" stroke="#eef1f6" stroke-width="1"></line><line x1="348" y1="30" x2="348" y2="466" stroke="#eef1f6" stroke-width="1"></line><line x1="360" y1="30" x2="360" y2="466" stroke="#eef1f6" stroke-width="1"></line><line x1="372" y1="30" x2="372" y2="466" stroke="#c9d3e0" stroke-width="1"></line><line x1="384" y1="30" x2="384" y2="466" stroke="#eef1f6" stroke-width="1"></line><line x1="396" y1="30" x2="396" y2="466" stroke="#eef1f6" stroke-width="1"></line><line x1="408" y1="30" x2="408" y2="466" stroke="#eef1f6" stroke-width="1"></line><line x1="420" y1="30" x2="420" y2="466" stroke="#eef1f6" stroke-width="1"></line><line x1="432" y1="30" x2="432" y2="466" stroke="#eef1f6" stroke-width="1"></line><line x1="444" y1="30" x2="444" y2="466" stroke="#eef1f6" stroke-width="1"></line><line x1="456" y1="30" x2="456" y2="466" stroke="#c9d3e0" stroke-width="1"></line><line x1="468" y1="30" x2="468" y2="466" stroke="#eef1f6" stroke-width="1"></line><line x1="480" y1="30" x2="480" y2="466" stroke="#eef1f6" stroke-width="1"></line><line x1="492" y1="30" x2="492" y2="466" stroke="#eef1f6" stroke-width="1"></line><line x1="504" y1="30" x2="504" y2="466" stroke="#eef1f6" stroke-width="1"></line><line x1="516" y1="30" x2="516" y2="466" stroke="#eef1f6" stroke-width="1"></line><line x1="528" y1="30" x2="528" y2="466" stroke="#eef1f6" stroke-width="1"></line><line x1="540" y1="30" x2="540" y2="466" stroke="#c9d3e0" stroke-width="1"></line><line x1="552" y1="30" x2="552" y2="466" stroke="#eef1f6" stroke-width="1"></line><line x1="564" y1="30" x2="564" y2="466" stroke="#eef1f6" stroke-width="1"></line><line x1="576" y1="30" x2="576" y2="466" stroke="#eef1f6" stroke-width="1"></line><line x1="588" y1="30" x2="588" y2="466" stroke="#eef1f6" stroke-width="1"></line><line x1="600" y1="30" x2="600" y2="466" stroke="#eef1f6" stroke-width="1"></line><line x1="612" y1="30" x2="612" y2="466" stroke="#eef1f6" stroke-width="1"></line><line x1="624" y1="30" x2="624" y2="466" stroke="#c9d3e0" stroke-width="1"></line><line x1="636" y1="30" x2="636" y2="466" stroke="#eef1f6" stroke-width="1"></line><line x1="648" y1="30" x2="648" y2="466" stroke="#eef1f6" stroke-width="1"></line><line x1="660" y1="30" x2="660" y2="466" stroke="#eef1f6" stroke-width="1"></line><line x1="672" y1="30" x2="672" y2="466" stroke="#eef1f6" stroke-width="1"></line><line x1="684" y1="30" x2="684" y2="466" stroke="#eef1f6" stroke-width="1"></line><line x1="696" y1="30" x2="696" y2="466" stroke="#eef1f6" stroke-width="1"></line><line x1="708" y1="30" x2="708" y2="466" stroke="#c9d3e0" stroke-width="1"></line><line x1="720" y1="30" x2="720" y2="466" stroke="#eef1f6" stroke-width="1"></line><line x1="732" y1="30" x2="732" y2="466" stroke="#eef1f6" stroke-width="1"></line><line x1="744" y1="30" x2="744" y2="466" stroke="#eef1f6" stroke-width="1"></line><line x1="756" y1="30" x2="756" y2="466" stroke="#eef1f6" stroke-width="1"></line><line x1="768" y1="30" x2="768" y2="466" stroke="#eef1f6" stroke-width="1"></line><line x1="780" y1="30" x2="780" y2="466" stroke="#eef1f6" stroke-width="1"></line><line x1="792" y1="30" x2="792" y2="466" stroke="#c9d3e0" stroke-width="1"></line><line x1="804" y1="30" x2="804" y2="466" stroke="#eef1f6" stroke-width="1"></line><line x1="816" y1="30" x2="816" y2="466" stroke="#eef1f6" stroke-width="1"></line><line x1="828" y1="30" x2="828" y2="466" stroke="#eef1f6" stroke-width="1"></line><line x1="840" y1="30" x2="840" y2="466" stroke="#eef1f6" stroke-width="1"></line><text x="8" y="382" font-size="12" fill="#333" text-anchor="start">⑤ 縦に積んだ 3 本</text><text x="120" y="382" font-size="11" fill="#333" text-anchor="start">隙間 ＝ 1px ＋ 依存線 1.50px ＋ 1px ＝ 3.50px（JDG-148）。本体を上下に引くと段が入れ替わる（日付は変わらない）。依存線は隙間を通る</text><text x="246" y="482" font-size="11" fill="#333" text-anchor="start">10 日ぶん = 120.0px</text></g><g data-layer="bars"><path d="M 456 392 L 600 392 L 600 409.5 L 456 409.5 Z" fill="var(--plan)" stroke="var(--plan-edge)" stroke-width="1"></path><rect x="456" y="395.749375" width="72" height="10.00125" fill="var(--actual)" stroke="var(--actual-edge)" stroke-width="1" stroke-dasharray="none"></rect><line x1="528" y1="400.75" x2="564" y2="400.75" stroke="var(--actual-edge)" stroke-width="1.2" stroke-dasharray="1.875 1.25"></line><path d="M 492 413 L 600 413 L 600 430.5 L 492 430.5 Z" fill="var(--plan)" stroke="var(--plan-edge)" stroke-width="1"></path><rect x="492" y="416.749375" width="7" height="10.00125" fill="var(--dummy)" stroke="var(--dummy-edge)" stroke-width="1" stroke-dasharray="none"></rect><path d="M 432 434 L 552 434 L 552 451.5 L 432 451.5 Z" fill="var(--plan)" stroke="var(--plan-edge)" stroke-width="1"></path><rect x="432" y="437.749375" width="120" height="10.00125" fill="var(--actual)" stroke="var(--actual-edge)" stroke-width="1" stroke-dasharray="none"></rect></g><g data-layer="deps"><rect x="408" y="387" width="216" height="69.5" fill="none" stroke="#c07a00" stroke-width="1.5"></rect><polyline points="600,400.75 606,400.75 606,411.25 482,411.25 482,421.75 492,421.75" fill="none" stroke="var(--dep)" stroke-width="1.5"></polyline><path d="M 492 421.75 L 486 419.25 L 486 424.25 Z" fill="var(--dep)"></path><polyline points="492,421.75 422,421.75 422,442.75 432,442.75" fill="none" stroke="var(--dep)" stroke-width="1.5"></polyline><path d="M 432 442.75 L 426 440.25 L 426 445.25 Z" fill="var(--dep)"></path></g><g data-layer="markers"><path d="M 564 407.75 L 564 400.75 L 572.68 400.75" fill="none" stroke="#0a7a48" stroke-width="1.5" stroke-linecap="round" stroke-linejoin="round" opacity="1"></path><path d="M 572.68 397.67 L 577.608 400.75 L 572.68 403.83 Z" fill="#0a7a48" opacity="1"></path><circle cx="463" cy="400.75" r="6" fill="#fff" stroke="#0a7a48" stroke-width="1.5"></circle><line x1="461.02" y1="398.11" x2="464.98" y2="403.39" stroke="#0a7a48" stroke-width="1.6" stroke-linecap="round"></line><circle cx="506" cy="421.75" r="6" fill="#fff" stroke="#0a7a48" stroke-width="1.5"></circle><circle cx="506" cy="421.75" r="1.2000000000000002" fill="#0a7a48"></circle><circle cx="439" cy="442.75" r="6" fill="#fff" stroke="#0a7a48" stroke-width="1.5"></circle><path d="M 435.7 442.75 L 438.34 445.06 L 442.3 440.44" fill="none" stroke="#0a7a48" stroke-width="1.6" stroke-linecap="round" stroke-linejoin="round"></path></g><g data-layer="labels"><text x="476" y="403.990405" font-size="9.001125" fill="#16181d" font-weight="600" paint-order="stroke" stroke="#fff" stroke-width="0.9001125000000001">タスク D</text><text x="452" y="403.990405" font-size="9.001125" fill="#16181d" text-anchor="end" paint-order="stroke" stroke="#fff" stroke-width="0.9001125000000001">担当 A : 50%</text><text x="519" y="424.990405" font-size="9.001125" fill="#16181d" font-weight="600" paint-order="stroke" stroke="#fff" stroke-width="0.9001125000000001">タスク E</text><text x="488" y="424.990405" font-size="9.001125" fill="#16181d" text-anchor="end" paint-order="stroke" stroke="#fff" stroke-width="0.9001125000000001">担当 B : 0%</text><text x="452" y="445.990405" font-size="9.001125" fill="#16181d" font-weight="600" paint-order="stroke" stroke="#fff" stroke-width="0.9001125000000001">タスク F</text><text x="428" y="445.990405" font-size="9.001125" fill="#16181d" text-anchor="end" paint-order="stroke" stroke="#fff" stroke-width="0.9001125000000001">担当 C : 100%</text></g><g data-layer="notes"></g><g data-layer="handles"><rect x="453.5" y="389.5" width="5" height="5" fill="#fff" stroke="#c0203c" stroke-width="1" stroke-dasharray="none"></rect><rect x="597.5" y="407" width="5" height="5" fill="#fff" stroke="#c0203c" stroke-width="1" stroke-dasharray="none"></rect><rect x="489.5" y="410.5" width="5" height="5" fill="#fff" stroke="#c0203c" stroke-width="1" stroke-dasharray="none"></rect><rect x="597.5" y="428" width="5" height="5" fill="#fff" stroke="#c0203c" stroke-width="1" stroke-dasharray="none"></rect><rect x="429.5" y="431.5" width="5" height="5" fill="#fff" stroke="#c0203c" stroke-width="1" stroke-dasharray="none"></rect><rect x="549.5" y="449" width="5" height="5" fill="#fff" stroke="#c0203c" stroke-width="1" stroke-dasharray="none"></rect></g><g data-layer="zones"></g><g data-layer="tool"></g>
  <g data-layer="hit-raster"><rect x="402" y="381" width="13" height="1" fill="hsla(150,70%,38%,.26)"/><rect x="618" y="381" width="13" height="1" fill="hsla(150,70%,38%,.26)"/><rect x="402" y="382" width="13" height="1" fill="hsla(150,70%,38%,.26)"/><rect x="618" y="382" width="13" height="1" fill="hsla(150,70%,38%,.26)"/><rect x="402" y="383" width="13" height="1" fill="hsla(150,70%,38%,.26)"/><rect x="618" y="383" width="13" height="1" fill="hsla(150,70%,38%,.26)"/><rect x="402" y="384" width="13" height="1" fill="hsla(150,70%,38%,.26)"/><rect x="415" y="384" width="203" height="1" fill="hsla(150,70%,38%,.26)"/><rect x="618" y="384" width="13" height="1" fill="hsla(150,70%,38%,.26)"/><rect x="402" y="385" width="13" height="1" fill="hsla(150,70%,38%,.26)"/><rect x="415" y="385" width="203" height="1" fill="hsla(150,70%,38%,.26)"/><rect x="618" y="385" width="13" height="1" fill="hsla(150,70%,38%,.26)"/><rect x="402" y="386" width="13" height="1" fill="hsla(150,70%,38%,.26)"/><rect x="415" y="386" width="203" height="1" fill="hsla(150,70%,38%,.26)"/><rect x="618" y="386" width="13" height="1" fill="hsla(150,70%,38%,.26)"/><rect x="402" y="387" width="13" height="1" fill="hsla(150,70%,38%,.26)"/><rect x="415" y="387" width="203" height="1" fill="hsla(150,70%,38%,.26)"/><rect x="618" y="387" width="13" height="1" fill="hsla(150,70%,38%,.26)"/><rect x="402" y="388" width="13" height="1" fill="hsla(150,70%,38%,.26)"/><rect x="415" y="388" width="203" height="1" fill="hsla(150,70%,38%,.26)"/><rect x="618" y="388" width="13" height="1" fill="hsla(150,70%,38%,.26)"/><rect x="402" y="389" width="13" height="1" fill="hsla(150,70%,38%,.26)"/><rect x="415" y="389" width="203" height="1" fill="hsla(150,70%,38%,.26)"/><rect x="618" y="389" width="13" height="1" fill="hsla(150,70%,38%,.26)"/><rect x="402" y="390" width="13" height="1" fill="hsla(150,70%,38%,.26)"/><rect x="415" y="390" width="203" height="1" fill="hsla(150,70%,38%,.26)"/><rect x="618" y="390" width="13" height="1" fill="hsla(150,70%,38%,.26)"/><rect x="402" y="391" width="13" height="1" fill="hsla(150,70%,38%,.26)"/><rect x="452" y="391" width="9" height="1" fill="hsla(185,90%,40%,.30)"/><rect x="618" y="391" width="13" height="1" fill="hsla(150,70%,38%,.26)"/><rect x="402" y="392" width="13" height="1" fill="hsla(150,70%,38%,.26)"/><rect x="444" y="392" width="8" height="1" fill="hsla(320,80%,55%,.24)"/><rect x="452" y="392" width="9" height="1" fill="hsla(185,90%,40%,.30)"/><rect x="600" y="392" width="13" height="1" fill="hsla(320,80%,55%,.24)"/><rect x="618" y="392" width="13" height="1" fill="hsla(150,70%,38%,.26)"/><rect x="402" y="393" width="13" height="1" fill="hsla(150,70%,38%,.26)"/><rect x="444" y="393" width="8" height="1" fill="hsla(320,80%,55%,.24)"/><rect x="452" y="393" width="9" height="1" fill="hsla(185,90%,40%,.30)"/><rect x="600" y="393" width="13" height="1" fill="hsla(320,80%,55%,.24)"/><rect x="618" y="393" width="13" height="1" fill="hsla(150,70%,38%,.26)"/><rect x="405" y="394" width="7" height="1" fill="hsla(150,70%,38%,.26)"/><rect x="444" y="394" width="8" height="1" fill="hsla(320,80%,55%,.24)"/><rect x="452" y="394" width="4" height="1" fill="hsla(185,90%,40%,.30)"/><rect x="456" y="394" width="15" height="1" fill="hsla(70,90%,42%,.32)"/><rect x="564" y="394" width="15" height="1" fill="hsla(70,90%,42%,.32)"/><rect x="600" y="394" width="13" height="1" fill="hsla(320,80%,55%,.24)"/><rect x="621" y="394" width="7" height="1" fill="hsla(150,70%,38%,.26)"/><rect x="405" y="395" width="7" height="1" fill="hsla(150,70%,38%,.26)"/><rect x="444" y="395" width="8" height="1" fill="hsla(320,80%,55%,.24)"/><rect x="452" y="395" width="4" height="1" fill="hsla(185,90%,40%,.30)"/><rect x="456" y="395" width="15" height="1" fill="hsla(70,90%,42%,.32)"/><rect x="564" y="395" width="15" height="1" fill="hsla(70,90%,42%,.32)"/><rect x="600" y="395" width="13" height="1" fill="hsla(320,80%,55%,.24)"/><rect x="621" y="395" width="7" height="1" fill="hsla(150,70%,38%,.26)"/><rect x="405" y="396" width="7" height="1" fill="hsla(150,70%,38%,.26)"/><rect x="444" y="396" width="8" height="1" fill="hsla(320,80%,55%,.24)"/><rect x="452" y="396" width="4" height="1" fill="hsla(185,90%,40%,.30)"/><rect x="456" y="396" width="8" height="1" fill="hsla(28,95%,50%,.26)"/><rect x="464" y="396" width="7" height="1" fill="hsla(70,90%,42%,.32)"/><rect x="516" y="396" width="13" height="1" fill="hsla(28,95%,50%,.26)"/><rect x="564" y="396" width="15" height="1" fill="hsla(70,90%,42%,.32)"/><rect x="600" y="396" width="13" height="1" fill="hsla(320,80%,55%,.24)"/><rect x="621" y="396" width="7" height="1" fill="hsla(150,70%,38%,.26)"/><rect x="405" y="397" width="7" height="1" fill="hsla(150,70%,38%,.26)"/><rect x="444" y="397" width="12" height="1" fill="hsla(320,80%,55%,.24)"/><rect x="456" y="397" width="8" height="1" fill="hsla(28,95%,50%,.26)"/><rect x="464" y="397" width="7" height="1" fill="hsla(70,90%,42%,.32)"/><rect x="516" y="397" width="13" height="1" fill="hsla(28,95%,50%,.26)"/><rect x="564" y="397" width="15" height="1" fill="hsla(70,90%,42%,.32)"/><rect x="600" y="397" width="13" height="1" fill="hsla(320,80%,55%,.24)"/><rect x="621" y="397" width="7" height="1" fill="hsla(150,70%,38%,.26)"/><rect x="405" y="398" width="7" height="1" fill="hsla(150,70%,38%,.26)"/><rect x="444" y="398" width="12" height="1" fill="hsla(320,80%,55%,.24)"/><rect x="456" y="398" width="8" height="1" fill="hsla(28,95%,50%,.26)"/><rect x="464" y="398" width="7" height="1" fill="hsla(70,90%,42%,.32)"/><rect x="516" y="398" width="13" height="1" fill="hsla(28,95%,50%,.26)"/><rect x="564" y="398" width="15" height="1" fill="hsla(70,90%,42%,.32)"/><rect x="600" y="398" width="1" height="1" fill="hsla(320,80%,55%,.24)"/><rect x="601" y="398" width="5" height="1" fill="hsla(265,70%,58%,.22)"/><rect x="606" y="398" width="3" height="1" fill="hsla(265,70%,58%,.22)"/><rect x="609" y="398" width="4" height="1" fill="hsla(320,80%,55%,.24)"/><rect x="621" y="398" width="7" height="1" fill="hsla(150,70%,38%,.26)"/><rect x="405" y="399" width="7" height="1" fill="hsla(150,70%,38%,.26)"/><rect x="444" y="399" width="12" height="1" fill="hsla(320,80%,55%,.24)"/><rect x="456" y="399" width="8" height="1" fill="hsla(28,95%,50%,.26)"/><rect x="464" y="399" width="7" height="1" fill="hsla(70,90%,42%,.32)"/><rect x="516" y="399" width="13" height="1" fill="hsla(28,95%,50%,.26)"/><rect x="564" y="399" width="15" height="1" fill="hsla(70,90%,42%,.32)"/><rect x="600" y="399" width="1" height="1" fill="hsla(320,80%,55%,.24)"/><rect x="601" y="399" width="5" height="1" fill="hsla(265,70%,58%,.22)"/><rect x="606" y="399" width="3" height="1" fill="hsla(265,70%,58%,.22)"/><rect x="609" y="399" width="4" height="1" fill="hsla(320,80%,55%,.24)"/><rect x="621" y="399" width="7" height="1" fill="hsla(150,70%,38%,.26)"/><rect x="405" y="400" width="7" height="1" fill="hsla(150,70%,38%,.26)"/><rect x="444" y="400" width="12" height="1" fill="hsla(320,80%,55%,.24)"/><rect x="456" y="400" width="8" height="1" fill="hsla(28,95%,50%,.26)"/><rect x="464" y="400" width="7" height="1" fill="hsla(70,90%,42%,.32)"/><rect x="516" y="400" width="13" height="1" fill="hsla(28,95%,50%,.26)"/><rect x="564" y="400" width="15" height="1" fill="hsla(70,90%,42%,.32)"/><rect x="600" y="400" width="6" height="1" fill="hsla(265,70%,58%,.22)"/><rect x="606" y="400" width="3" height="1" fill="hsla(265,70%,58%,.22)"/><rect x="609" y="400" width="4" height="1" fill="hsla(320,80%,55%,.24)"/><rect x="621" y="400" width="7" height="1" fill="hsla(150,70%,38%,.26)"/><rect x="405" y="401" width="7" height="1" fill="hsla(150,70%,38%,.26)"/><rect x="444" y="401" width="12" height="1" fill="hsla(320,80%,55%,.24)"/><rect x="456" y="401" width="8" height="1" fill="hsla(28,95%,50%,.26)"/><rect x="464" y="401" width="7" height="1" fill="hsla(70,90%,42%,.32)"/><rect x="516" y="401" width="13" height="1" fill="hsla(28,95%,50%,.26)"/><rect x="564" y="401" width="15" height="1" fill="hsla(70,90%,42%,.32)"/><rect x="600" y="401" width="6" height="1" fill="hsla(265,70%,58%,.22)"/><rect x="606" y="401" width="3" height="1" fill="hsla(265,70%,58%,.22)"/><rect x="609" y="401" width="4" height="1" fill="hsla(320,80%,55%,.24)"/><rect x="621" y="401" width="7" height="1" fill="hsla(150,70%,38%,.26)"/><rect x="405" y="402" width="7" height="1" fill="hsla(150,70%,38%,.26)"/><rect x="444" y="402" width="12" height="1" fill="hsla(320,80%,55%,.24)"/><rect x="456" y="402" width="8" height="1" fill="hsla(28,95%,50%,.26)"/><rect x="464" y="402" width="7" height="1" fill="hsla(70,90%,42%,.32)"/><rect x="516" y="402" width="13" height="1" fill="hsla(28,95%,50%,.26)"/><rect x="564" y="402" width="15" height="1" fill="hsla(70,90%,42%,.32)"/><rect x="600" y="402" width="1" height="1" fill="hsla(320,80%,55%,.24)"/><rect x="601" y="402" width="4" height="1" fill="hsla(265,70%,58%,.22)"/><rect x="605" y="402" width="4" height="1" fill="hsla(265,70%,58%,.22)"/><rect x="609" y="402" width="4" height="1" fill="hsla(320,80%,55%,.24)"/><rect x="621" y="402" width="7" height="1" fill="hsla(150,70%,38%,.26)"/><rect x="405" y="403" width="7" height="1" fill="hsla(150,70%,38%,.26)"/><rect x="444" y="403" width="12" height="1" fill="hsla(320,80%,55%,.24)"/><rect x="456" y="403" width="8" height="1" fill="hsla(28,95%,50%,.26)"/><rect x="464" y="403" width="7" height="1" fill="hsla(70,90%,42%,.32)"/><rect x="516" y="403" width="13" height="1" fill="hsla(28,95%,50%,.26)"/><rect x="564" y="403" width="15" height="1" fill="hsla(70,90%,42%,.32)"/><rect x="600" y="403" width="1" height="1" fill="hsla(320,80%,55%,.24)"/><rect x="601" y="403" width="3" height="1" fill="hsla(265,70%,58%,.22)"/><rect x="604" y="403" width="5" height="1" fill="hsla(265,70%,58%,.22)"/><rect x="609" y="403" width="4" height="1" fill="hsla(320,80%,55%,.24)"/><rect x="621" y="403" width="7" height="1" fill="hsla(150,70%,38%,.26)"/><rect x="405" y="404" width="7" height="1" fill="hsla(150,70%,38%,.26)"/><rect x="444" y="404" width="12" height="1" fill="hsla(320,80%,55%,.24)"/><rect x="456" y="404" width="8" height="1" fill="hsla(28,95%,50%,.26)"/><rect x="464" y="404" width="7" height="1" fill="hsla(70,90%,42%,.32)"/><rect x="516" y="404" width="13" height="1" fill="hsla(28,95%,50%,.26)"/><rect x="564" y="404" width="15" height="1" fill="hsla(70,90%,42%,.32)"/><rect x="600" y="404" width="4" height="1" fill="hsla(320,80%,55%,.24)"/><rect x="604" y="404" width="5" height="1" fill="hsla(265,70%,58%,.22)"/><rect x="609" y="404" width="4" height="1" fill="hsla(320,80%,55%,.24)"/><rect x="621" y="404" width="7" height="1" fill="hsla(150,70%,38%,.26)"/><rect x="405" y="405" width="7" height="1" fill="hsla(150,70%,38%,.26)"/><rect x="444" y="405" width="12" height="1" fill="hsla(320,80%,55%,.24)"/><rect x="456" y="405" width="8" height="1" fill="hsla(28,95%,50%,.26)"/><rect x="464" y="405" width="7" height="1" fill="hsla(70,90%,42%,.32)"/><rect x="516" y="405" width="13" height="1" fill="hsla(28,95%,50%,.26)"/><rect x="564" y="405" width="15" height="1" fill="hsla(70,90%,42%,.32)"/><rect x="600" y="405" width="4" height="1" fill="hsla(320,80%,55%,.24)"/><rect x="604" y="405" width="5" height="1" fill="hsla(265,70%,58%,.22)"/><rect x="609" y="405" width="4" height="1" fill="hsla(320,80%,55%,.24)"/><rect x="621" y="405" width="7" height="1" fill="hsla(150,70%,38%,.26)"/><rect x="405" y="406" width="7" height="1" fill="hsla(150,70%,38%,.26)"/><rect x="444" y="406" width="12" height="1" fill="hsla(320,80%,55%,.24)"/><rect x="456" y="406" width="15" height="1" fill="hsla(70,90%,42%,.32)"/><rect x="564" y="406" width="15" height="1" fill="hsla(70,90%,42%,.32)"/><rect x="596" y="406" width="9" height="1" fill="hsla(185,90%,40%,.30)"/><rect x="605" y="406" width="4" height="1" fill="hsla(265,70%,58%,.22)"/><rect x="609" y="406" width="4" height="1" fill="hsla(320,80%,55%,.24)"/><rect x="621" y="406" width="7" height="1" fill="hsla(150,70%,38%,.26)"/><rect x="405" y="407" width="7" height="1" fill="hsla(150,70%,38%,.26)"/><rect x="444" y="407" width="12" height="1" fill="hsla(320,80%,55%,.24)"/><rect x="456" y="407" width="15" height="1" fill="hsla(70,90%,42%,.32)"/><rect x="564" y="407" width="15" height="1" fill="hsla(70,90%,42%,.32)"/><rect x="596" y="407" width="9" height="1" fill="hsla(185,90%,40%,.30)"/><rect x="605" y="407" width="4" height="1" fill="hsla(265,70%,58%,.22)"/><rect x="609" y="407" width="4" height="1" fill="hsla(320,80%,55%,.24)"/><rect x="621" y="407" width="7" height="1" fill="hsla(150,70%,38%,.26)"/><rect x="405" y="408" width="7" height="1" fill="hsla(150,70%,38%,.26)"/><rect x="444" y="408" width="13" height="1" fill="hsla(320,80%,55%,.24)"/><rect x="596" y="408" width="9" height="1" fill="hsla(185,90%,40%,.30)"/><rect x="605" y="408" width="4" height="1" fill="hsla(265,70%,58%,.22)"/><rect x="609" y="408" width="4" height="1" fill="hsla(320,80%,55%,.24)"/><rect x="621" y="408" width="7" height="1" fill="hsla(150,70%,38%,.26)"/><rect x="405" y="409" width="7" height="1" fill="hsla(150,70%,38%,.26)"/><rect x="444" y="409" width="13" height="1" fill="hsla(320,80%,55%,.24)"/><rect x="596" y="409" width="9" height="1" fill="hsla(185,90%,40%,.30)"/><rect x="605" y="409" width="4" height="1" fill="hsla(265,70%,58%,.22)"/><rect x="609" y="409" width="4" height="1" fill="hsla(320,80%,55%,.24)"/><rect x="621" y="409" width="7" height="1" fill="hsla(150,70%,38%,.26)"/><rect x="405" y="410" width="7" height="1" fill="hsla(150,70%,38%,.26)"/><rect x="480" y="410" width="8" height="1" fill="hsla(265,70%,58%,.22)"/><rect x="488" y="410" width="9" height="1" fill="hsla(185,90%,40%,.30)"/><rect x="497" y="410" width="99" height="1" fill="hsla(265,70%,58%,.22)"/><rect x="596" y="410" width="9" height="1" fill="hsla(185,90%,40%,.30)"/><rect x="605" y="410" width="4" height="1" fill="hsla(265,70%,58%,.22)"/><rect x="621" y="410" width="7" height="1" fill="hsla(150,70%,38%,.26)"/><rect x="405" y="411" width="7" height="1" fill="hsla(150,70%,38%,.26)"/><rect x="480" y="411" width="8" height="1" fill="hsla(265,70%,58%,.22)"/><rect x="488" y="411" width="9" height="1" fill="hsla(185,90%,40%,.30)"/><rect x="497" y="411" width="99" height="1" fill="hsla(265,70%,58%,.22)"/><rect x="596" y="411" width="9" height="1" fill="hsla(185,90%,40%,.30)"/><rect x="605" y="411" width="1" height="1" fill="hsla(265,70%,58%,.22)"/><rect x="606" y="411" width="3" height="1" fill="hsla(265,70%,58%,.22)"/><rect x="621" y="411" width="7" height="1" fill="hsla(150,70%,38%,.26)"/><rect x="405" y="412" width="7" height="1" fill="hsla(150,70%,38%,.26)"/><rect x="480" y="412" width="3" height="1" fill="hsla(265,70%,58%,.22)"/><rect x="483" y="412" width="5" height="1" fill="hsla(265,70%,58%,.22)"/><rect x="488" y="412" width="9" height="1" fill="hsla(185,90%,40%,.30)"/><rect x="497" y="412" width="99" height="1" fill="hsla(265,70%,58%,.22)"/><rect x="596" y="412" width="9" height="1" fill="hsla(185,90%,40%,.30)"/><rect x="605" y="412" width="1" height="1" fill="hsla(265,70%,58%,.22)"/><rect x="606" y="412" width="3" height="1" fill="hsla(265,70%,58%,.22)"/><rect x="621" y="412" width="7" height="1" fill="hsla(150,70%,38%,.26)"/><rect x="405" y="413" width="7" height="1" fill="hsla(150,70%,38%,.26)"/><rect x="480" y="413" width="4" height="1" fill="hsla(265,70%,58%,.22)"/><rect x="484" y="413" width="4" height="1" fill="hsla(265,70%,58%,.22)"/><rect x="488" y="413" width="9" height="1" fill="hsla(185,90%,40%,.30)"/><rect x="600" y="413" width="1" height="1" fill="hsla(320,80%,55%,.24)"/><rect x="601" y="413" width="5" height="1" fill="hsla(265,70%,58%,.22)"/><rect x="606" y="413" width="3" height="1" fill="hsla(265,70%,58%,.22)"/><rect x="609" y="413" width="4" height="1" fill="hsla(320,80%,55%,.24)"/><rect x="621" y="413" width="7" height="1" fill="hsla(150,70%,38%,.26)"/><rect x="405" y="414" width="7" height="1" fill="hsla(150,70%,38%,.26)"/><rect x="480" y="414" width="5" height="1" fill="hsla(265,70%,58%,.22)"/><rect x="485" y="414" width="3" height="1" fill="hsla(265,70%,58%,.22)"/><rect x="488" y="414" width="9" height="1" fill="hsla(185,90%,40%,.30)"/><rect x="600" y="414" width="1" height="1" fill="hsla(320,80%,55%,.24)"/><rect x="601" y="414" width="5" height="1" fill="hsla(265,70%,58%,.22)"/><rect x="606" y="414" width="3" height="1" fill="hsla(265,70%,58%,.22)"/><rect x="609" y="414" width="4" height="1" fill="hsla(320,80%,55%,.24)"/><rect x="621" y="414" width="7" height="1" fill="hsla(150,70%,38%,.26)"/><rect x="405" y="415" width="7" height="1" fill="hsla(150,70%,38%,.26)"/><rect x="480" y="415" width="5" height="1" fill="hsla(265,70%,58%,.22)"/><rect x="485" y="415" width="3" height="1" fill="hsla(320,80%,55%,.24)"/><rect x="488" y="415" width="9" height="1" fill="hsla(185,90%,40%,.30)"/><rect x="499" y="415" width="15" height="1" fill="hsla(70,90%,42%,.32)"/><rect x="600" y="415" width="13" height="1" fill="hsla(320,80%,55%,.24)"/><rect x="621" y="415" width="7" height="1" fill="hsla(150,70%,38%,.26)"/><rect x="405" y="416" width="7" height="1" fill="hsla(150,70%,38%,.26)"/><rect x="480" y="416" width="5" height="1" fill="hsla(265,70%,58%,.22)"/><rect x="485" y="416" width="3" height="1" fill="hsla(320,80%,55%,.24)"/><rect x="488" y="416" width="9" height="1" fill="hsla(185,90%,40%,.30)"/><rect x="499" y="416" width="15" height="1" fill="hsla(70,90%,42%,.32)"/><rect x="600" y="416" width="13" height="1" fill="hsla(320,80%,55%,.24)"/><rect x="621" y="416" width="7" height="1" fill="hsla(150,70%,38%,.26)"/><rect x="405" y="417" width="7" height="1" fill="hsla(150,70%,38%,.26)"/><rect x="480" y="417" width="5" height="1" fill="hsla(265,70%,58%,.22)"/><rect x="485" y="417" width="3" height="1" fill="hsla(320,80%,55%,.24)"/><rect x="488" y="417" width="9" height="1" fill="hsla(185,90%,40%,.30)"/><rect x="497" y="417" width="2" height="1" fill="hsla(28,95%,50%,.26)"/><rect x="499" y="417" width="15" height="1" fill="hsla(70,90%,42%,.32)"/><rect x="600" y="417" width="13" height="1" fill="hsla(320,80%,55%,.24)"/><rect x="621" y="417" width="7" height="1" fill="hsla(150,70%,38%,.26)"/><rect x="405" y="418" width="7" height="1" fill="hsla(150,70%,38%,.26)"/><rect x="480" y="418" width="5" height="1" fill="hsla(265,70%,58%,.22)"/><rect x="485" y="418" width="7" height="1" fill="hsla(320,80%,55%,.24)"/><rect x="492" y="418" width="4" height="1" fill="hsla(28,95%,50%,.26)"/><rect x="496" y="418" width="3" height="1" fill="hsla(28,95%,50%,.26)"/><rect x="499" y="418" width="15" height="1" fill="hsla(70,90%,42%,.32)"/><rect x="600" y="418" width="13" height="1" fill="hsla(320,80%,55%,.24)"/><rect x="621" y="418" width="7" height="1" fill="hsla(150,70%,38%,.26)"/><rect x="405" y="419" width="7" height="1" fill="hsla(150,70%,38%,.26)"/><rect x="420" y="419" width="60" height="1" fill="hsla(265,70%,58%,.22)"/><rect x="480" y="419" width="5" height="1" fill="hsla(265,70%,58%,.22)"/><rect x="485" y="419" width="7" height="1" fill="hsla(265,70%,58%,.22)"/><rect x="492" y="419" width="4" height="1" fill="hsla(28,95%,50%,.26)"/><rect x="496" y="419" width="3" height="1" fill="hsla(28,95%,50%,.26)"/><rect x="499" y="419" width="15" height="1" fill="hsla(70,90%,42%,.32)"/><rect x="600" y="419" width="13" height="1" fill="hsla(320,80%,55%,.24)"/><rect x="621" y="419" width="7" height="1" fill="hsla(150,70%,38%,.26)"/><rect x="405" y="420" width="7" height="1" fill="hsla(150,70%,38%,.26)"/><rect x="420" y="420" width="61" height="1" fill="hsla(265,70%,58%,.22)"/><rect x="481" y="420" width="3" height="1" fill="hsla(265,70%,58%,.22)"/><rect x="484" y="420" width="8" height="1" fill="hsla(265,70%,58%,.22)"/><rect x="492" y="420" width="4" height="1" fill="hsla(28,95%,50%,.26)"/><rect x="496" y="420" width="3" height="1" fill="hsla(28,95%,50%,.26)"/><rect x="499" y="420" width="15" height="1" fill="hsla(70,90%,42%,.32)"/><rect x="600" y="420" width="13" height="1" fill="hsla(320,80%,55%,.24)"/><rect x="621" y="420" width="7" height="1" fill="hsla(150,70%,38%,.26)"/><rect x="405" y="421" width="7" height="1" fill="hsla(150,70%,38%,.26)"/><rect x="420" y="421" width="62" height="1" fill="hsla(265,70%,58%,.22)"/><rect x="482" y="421" width="1" height="1" fill="hsla(265,70%,58%,.22)"/><rect x="483" y="421" width="9" height="1" fill="hsla(265,70%,58%,.22)"/><rect x="492" y="421" width="4" height="1" fill="hsla(28,95%,50%,.26)"/><rect x="496" y="421" width="3" height="1" fill="hsla(28,95%,50%,.26)"/><rect x="499" y="421" width="15" height="1" fill="hsla(70,90%,42%,.32)"/><rect x="600" y="421" width="13" height="1" fill="hsla(320,80%,55%,.24)"/><rect x="621" y="421" width="7" height="1" fill="hsla(150,70%,38%,.26)"/><rect x="405" y="422" width="7" height="1" fill="hsla(150,70%,38%,.26)"/><rect x="420" y="422" width="3" height="1" fill="hsla(265,70%,58%,.22)"/><rect x="423" y="422" width="59" height="1" fill="hsla(265,70%,58%,.22)"/><rect x="482" y="422" width="10" height="1" fill="hsla(265,70%,58%,.22)"/><rect x="492" y="422" width="4" height="1" fill="hsla(28,95%,50%,.26)"/><rect x="496" y="422" width="3" height="1" fill="hsla(28,95%,50%,.26)"/><rect x="499" y="422" width="15" height="1" fill="hsla(70,90%,42%,.32)"/><rect x="600" y="422" width="13" height="1" fill="hsla(320,80%,55%,.24)"/><rect x="621" y="422" width="7" height="1" fill="hsla(150,70%,38%,.26)"/><rect x="405" y="423" width="7" height="1" fill="hsla(150,70%,38%,.26)"/><rect x="420" y="423" width="4" height="1" fill="hsla(265,70%,58%,.22)"/><rect x="424" y="423" width="58" height="1" fill="hsla(265,70%,58%,.22)"/><rect x="482" y="423" width="10" height="1" fill="hsla(265,70%,58%,.22)"/><rect x="492" y="423" width="4" height="1" fill="hsla(28,95%,50%,.26)"/><rect x="496" y="423" width="3" height="1" fill="hsla(28,95%,50%,.26)"/><rect x="499" y="423" width="15" height="1" fill="hsla(70,90%,42%,.32)"/><rect x="600" y="423" width="13" height="1" fill="hsla(320,80%,55%,.24)"/><rect x="621" y="423" width="7" height="1" fill="hsla(150,70%,38%,.26)"/><rect x="405" y="424" width="7" height="1" fill="hsla(150,70%,38%,.26)"/><rect x="420" y="424" width="5" height="1" fill="hsla(265,70%,58%,.22)"/><rect x="425" y="424" width="57" height="1" fill="hsla(265,70%,58%,.22)"/><rect x="482" y="424" width="10" height="1" fill="hsla(265,70%,58%,.22)"/><rect x="492" y="424" width="4" height="1" fill="hsla(28,95%,50%,.26)"/><rect x="496" y="424" width="3" height="1" fill="hsla(28,95%,50%,.26)"/><rect x="499" y="424" width="15" height="1" fill="hsla(70,90%,42%,.32)"/><rect x="600" y="424" width="13" height="1" fill="hsla(320,80%,55%,.24)"/><rect x="621" y="424" width="7" height="1" fill="hsla(150,70%,38%,.26)"/><rect x="405" y="425" width="7" height="1" fill="hsla(150,70%,38%,.26)"/><rect x="420" y="425" width="5" height="1" fill="hsla(265,70%,58%,.22)"/><rect x="480" y="425" width="12" height="1" fill="hsla(320,80%,55%,.24)"/><rect x="492" y="425" width="4" height="1" fill="hsla(28,95%,50%,.26)"/><rect x="496" y="425" width="3" height="1" fill="hsla(28,95%,50%,.26)"/><rect x="499" y="425" width="15" height="1" fill="hsla(70,90%,42%,.32)"/><rect x="600" y="425" width="13" height="1" fill="hsla(320,80%,55%,.24)"/><rect x="621" y="425" width="7" height="1" fill="hsla(150,70%,38%,.26)"/><rect x="405" y="426" width="7" height="1" fill="hsla(150,70%,38%,.26)"/><rect x="420" y="426" width="5" height="1" fill="hsla(265,70%,58%,.22)"/><rect x="480" y="426" width="12" height="1" fill="hsla(320,80%,55%,.24)"/><rect x="492" y="426" width="4" height="1" fill="hsla(28,95%,50%,.26)"/><rect x="496" y="426" width="3" height="1" fill="hsla(28,95%,50%,.26)"/><rect x="499" y="426" width="15" height="1" fill="hsla(70,90%,42%,.32)"/><rect x="600" y="426" width="13" height="1" fill="hsla(320,80%,55%,.24)"/><rect x="621" y="426" width="7" height="1" fill="hsla(150,70%,38%,.26)"/><rect x="405" y="427" width="7" height="1" fill="hsla(150,70%,38%,.26)"/><rect x="420" y="427" width="5" height="1" fill="hsla(265,70%,58%,.22)"/><rect x="480" y="427" width="13" height="1" fill="hsla(320,80%,55%,.24)"/><rect x="499" y="427" width="15" height="1" fill="hsla(70,90%,42%,.32)"/><rect x="596" y="427" width="9" height="1" fill="hsla(185,90%,40%,.30)"/><rect x="605" y="427" width="8" height="1" fill="hsla(320,80%,55%,.24)"/><rect x="621" y="427" width="7" height="1" fill="hsla(150,70%,38%,.26)"/><rect x="405" y="428" width="7" height="1" fill="hsla(150,70%,38%,.26)"/><rect x="420" y="428" width="5" height="1" fill="hsla(265,70%,58%,.22)"/><rect x="480" y="428" width="13" height="1" fill="hsla(320,80%,55%,.24)"/><rect x="499" y="428" width="15" height="1" fill="hsla(70,90%,42%,.32)"/><rect x="596" y="428" width="9" height="1" fill="hsla(185,90%,40%,.30)"/><rect x="605" y="428" width="8" height="1" fill="hsla(320,80%,55%,.24)"/><rect x="621" y="428" width="7" height="1" fill="hsla(150,70%,38%,.26)"/><rect x="405" y="429" width="7" height="1" fill="hsla(150,70%,38%,.26)"/><rect x="420" y="429" width="5" height="1" fill="hsla(265,70%,58%,.22)"/><rect x="480" y="429" width="13" height="1" fill="hsla(320,80%,55%,.24)"/><rect x="596" y="429" width="9" height="1" fill="hsla(185,90%,40%,.30)"/><rect x="605" y="429" width="8" height="1" fill="hsla(320,80%,55%,.24)"/><rect x="621" y="429" width="7" height="1" fill="hsla(150,70%,38%,.26)"/><rect x="405" y="430" width="7" height="1" fill="hsla(150,70%,38%,.26)"/><rect x="420" y="430" width="5" height="1" fill="hsla(265,70%,58%,.22)"/><rect x="428" y="430" width="9" height="1" fill="hsla(185,90%,40%,.30)"/><rect x="480" y="430" width="13" height="1" fill="hsla(320,80%,55%,.24)"/><rect x="596" y="430" width="9" height="1" fill="hsla(185,90%,40%,.30)"/><rect x="605" y="430" width="8" height="1" fill="hsla(320,80%,55%,.24)"/><rect x="621" y="430" width="7" height="1" fill="hsla(150,70%,38%,.26)"/><rect x="405" y="431" width="7" height="1" fill="hsla(150,70%,38%,.26)"/><rect x="420" y="431" width="5" height="1" fill="hsla(265,70%,58%,.22)"/><rect x="428" y="431" width="9" height="1" fill="hsla(185,90%,40%,.30)"/><rect x="596" y="431" width="9" height="1" fill="hsla(185,90%,40%,.30)"/><rect x="621" y="431" width="7" height="1" fill="hsla(150,70%,38%,.26)"/><rect x="405" y="432" width="7" height="1" fill="hsla(150,70%,38%,.26)"/><rect x="420" y="432" width="5" height="1" fill="hsla(265,70%,58%,.22)"/><rect x="428" y="432" width="9" height="1" fill="hsla(185,90%,40%,.30)"/><rect x="596" y="432" width="9" height="1" fill="hsla(185,90%,40%,.30)"/><rect x="621" y="432" width="7" height="1" fill="hsla(150,70%,38%,.26)"/><rect x="405" y="433" width="7" height="1" fill="hsla(150,70%,38%,.26)"/><rect x="420" y="433" width="5" height="1" fill="hsla(265,70%,58%,.22)"/><rect x="428" y="433" width="9" height="1" fill="hsla(185,90%,40%,.30)"/><rect x="596" y="433" width="9" height="1" fill="hsla(185,90%,40%,.30)"/><rect x="621" y="433" width="7" height="1" fill="hsla(150,70%,38%,.26)"/><rect x="405" y="434" width="7" height="1" fill="hsla(150,70%,38%,.26)"/><rect x="420" y="434" width="5" height="1" fill="hsla(265,70%,58%,.22)"/><rect x="425" y="434" width="3" height="1" fill="hsla(320,80%,55%,.24)"/><rect x="428" y="434" width="9" height="1" fill="hsla(185,90%,40%,.30)"/><rect x="552" y="434" width="13" height="1" fill="hsla(320,80%,55%,.24)"/><rect x="596" y="434" width="9" height="1" fill="hsla(185,90%,40%,.30)"/><rect x="621" y="434" width="7" height="1" fill="hsla(150,70%,38%,.26)"/><rect x="405" y="435" width="7" height="1" fill="hsla(150,70%,38%,.26)"/><rect x="420" y="435" width="5" height="1" fill="hsla(265,70%,58%,.22)"/><rect x="425" y="435" width="3" height="1" fill="hsla(320,80%,55%,.24)"/><rect x="428" y="435" width="9" height="1" fill="hsla(185,90%,40%,.30)"/><rect x="552" y="435" width="13" height="1" fill="hsla(320,80%,55%,.24)"/><rect x="621" y="435" width="7" height="1" fill="hsla(150,70%,38%,.26)"/><rect x="405" y="436" width="7" height="1" fill="hsla(150,70%,38%,.26)"/><rect x="420" y="436" width="5" height="1" fill="hsla(265,70%,58%,.22)"/><rect x="425" y="436" width="3" height="1" fill="hsla(320,80%,55%,.24)"/><rect x="428" y="436" width="4" height="1" fill="hsla(185,90%,40%,.30)"/><rect x="432" y="436" width="15" height="1" fill="hsla(70,90%,42%,.32)"/><rect x="552" y="436" width="13" height="1" fill="hsla(320,80%,55%,.24)"/><rect x="621" y="436" width="7" height="1" fill="hsla(150,70%,38%,.26)"/><rect x="405" y="437" width="7" height="1" fill="hsla(150,70%,38%,.26)"/><rect x="420" y="437" width="5" height="1" fill="hsla(265,70%,58%,.22)"/><rect x="425" y="437" width="3" height="1" fill="hsla(320,80%,55%,.24)"/><rect x="428" y="437" width="4" height="1" fill="hsla(185,90%,40%,.30)"/><rect x="432" y="437" width="15" height="1" fill="hsla(70,90%,42%,.32)"/><rect x="552" y="437" width="13" height="1" fill="hsla(320,80%,55%,.24)"/><rect x="621" y="437" width="7" height="1" fill="hsla(150,70%,38%,.26)"/><rect x="405" y="438" width="7" height="1" fill="hsla(150,70%,38%,.26)"/><rect x="420" y="438" width="5" height="1" fill="hsla(265,70%,58%,.22)"/><rect x="425" y="438" width="3" height="1" fill="hsla(320,80%,55%,.24)"/><rect x="428" y="438" width="4" height="1" fill="hsla(185,90%,40%,.30)"/><rect x="432" y="438" width="8" height="1" fill="hsla(28,95%,50%,.26)"/><rect x="440" y="438" width="7" height="1" fill="hsla(70,90%,42%,.32)"/><rect x="540" y="438" width="13" height="1" fill="hsla(28,95%,50%,.26)"/><rect x="553" y="438" width="12" height="1" fill="hsla(320,80%,55%,.24)"/><rect x="621" y="438" width="7" height="1" fill="hsla(150,70%,38%,.26)"/><rect x="405" y="439" width="7" height="1" fill="hsla(150,70%,38%,.26)"/><rect x="420" y="439" width="5" height="1" fill="hsla(265,70%,58%,.22)"/><rect x="425" y="439" width="7" height="1" fill="hsla(320,80%,55%,.24)"/><rect x="432" y="439" width="8" height="1" fill="hsla(28,95%,50%,.26)"/><rect x="440" y="439" width="7" height="1" fill="hsla(70,90%,42%,.32)"/><rect x="540" y="439" width="13" height="1" fill="hsla(28,95%,50%,.26)"/><rect x="553" y="439" width="12" height="1" fill="hsla(320,80%,55%,.24)"/><rect x="621" y="439" width="7" height="1" fill="hsla(150,70%,38%,.26)"/><rect x="405" y="440" width="7" height="1" fill="hsla(150,70%,38%,.26)"/><rect x="420" y="440" width="5" height="1" fill="hsla(265,70%,58%,.22)"/><rect x="425" y="440" width="7" height="1" fill="hsla(265,70%,58%,.22)"/><rect x="432" y="440" width="8" height="1" fill="hsla(28,95%,50%,.26)"/><rect x="440" y="440" width="7" height="1" fill="hsla(70,90%,42%,.32)"/><rect x="540" y="440" width="13" height="1" fill="hsla(28,95%,50%,.26)"/><rect x="553" y="440" width="12" height="1" fill="hsla(320,80%,55%,.24)"/><rect x="621" y="440" width="7" height="1" fill="hsla(150,70%,38%,.26)"/><rect x="405" y="441" width="7" height="1" fill="hsla(150,70%,38%,.26)"/><rect x="420" y="441" width="4" height="1" fill="hsla(265,70%,58%,.22)"/><rect x="424" y="441" width="8" height="1" fill="hsla(265,70%,58%,.22)"/><rect x="432" y="441" width="8" height="1" fill="hsla(28,95%,50%,.26)"/><rect x="440" y="441" width="7" height="1" fill="hsla(70,90%,42%,.32)"/><rect x="540" y="441" width="13" height="1" fill="hsla(28,95%,50%,.26)"/><rect x="553" y="441" width="12" height="1" fill="hsla(320,80%,55%,.24)"/><rect x="621" y="441" width="7" height="1" fill="hsla(150,70%,38%,.26)"/><rect x="405" y="442" width="7" height="1" fill="hsla(150,70%,38%,.26)"/><rect x="420" y="442" width="3" height="1" fill="hsla(265,70%,58%,.22)"/><rect x="423" y="442" width="9" height="1" fill="hsla(265,70%,58%,.22)"/><rect x="432" y="442" width="8" height="1" fill="hsla(28,95%,50%,.26)"/><rect x="440" y="442" width="7" height="1" fill="hsla(70,90%,42%,.32)"/><rect x="540" y="442" width="13" height="1" fill="hsla(28,95%,50%,.26)"/><rect x="553" y="442" width="12" height="1" fill="hsla(320,80%,55%,.24)"/><rect x="621" y="442" width="7" height="1" fill="hsla(150,70%,38%,.26)"/><rect x="405" y="443" width="7" height="1" fill="hsla(150,70%,38%,.26)"/><rect x="420" y="443" width="12" height="1" fill="hsla(265,70%,58%,.22)"/><rect x="432" y="443" width="8" height="1" fill="hsla(28,95%,50%,.26)"/><rect x="440" y="443" width="7" height="1" fill="hsla(70,90%,42%,.32)"/><rect x="540" y="443" width="13" height="1" fill="hsla(28,95%,50%,.26)"/><rect x="553" y="443" width="12" height="1" fill="hsla(320,80%,55%,.24)"/><rect x="621" y="443" width="7" height="1" fill="hsla(150,70%,38%,.26)"/><rect x="405" y="444" width="7" height="1" fill="hsla(150,70%,38%,.26)"/><rect x="420" y="444" width="12" height="1" fill="hsla(265,70%,58%,.22)"/><rect x="432" y="444" width="8" height="1" fill="hsla(28,95%,50%,.26)"/><rect x="440" y="444" width="7" height="1" fill="hsla(70,90%,42%,.32)"/><rect x="540" y="444" width="13" height="1" fill="hsla(28,95%,50%,.26)"/><rect x="553" y="444" width="12" height="1" fill="hsla(320,80%,55%,.24)"/><rect x="621" y="444" width="7" height="1" fill="hsla(150,70%,38%,.26)"/><rect x="405" y="445" width="7" height="1" fill="hsla(150,70%,38%,.26)"/><rect x="420" y="445" width="12" height="1" fill="hsla(265,70%,58%,.22)"/><rect x="432" y="445" width="8" height="1" fill="hsla(28,95%,50%,.26)"/><rect x="440" y="445" width="7" height="1" fill="hsla(70,90%,42%,.32)"/><rect x="540" y="445" width="13" height="1" fill="hsla(28,95%,50%,.26)"/><rect x="553" y="445" width="12" height="1" fill="hsla(320,80%,55%,.24)"/><rect x="621" y="445" width="7" height="1" fill="hsla(150,70%,38%,.26)"/><rect x="405" y="446" width="7" height="1" fill="hsla(150,70%,38%,.26)"/><rect x="420" y="446" width="12" height="1" fill="hsla(320,80%,55%,.24)"/><rect x="432" y="446" width="8" height="1" fill="hsla(28,95%,50%,.26)"/><rect x="440" y="446" width="7" height="1" fill="hsla(70,90%,42%,.32)"/><rect x="540" y="446" width="13" height="1" fill="hsla(28,95%,50%,.26)"/><rect x="553" y="446" width="12" height="1" fill="hsla(320,80%,55%,.24)"/><rect x="621" y="446" width="7" height="1" fill="hsla(150,70%,38%,.26)"/><rect x="405" y="447" width="7" height="1" fill="hsla(150,70%,38%,.26)"/><rect x="420" y="447" width="12" height="1" fill="hsla(320,80%,55%,.24)"/><rect x="432" y="447" width="8" height="1" fill="hsla(28,95%,50%,.26)"/><rect x="440" y="447" width="7" height="1" fill="hsla(70,90%,42%,.32)"/><rect x="540" y="447" width="13" height="1" fill="hsla(28,95%,50%,.26)"/><rect x="553" y="447" width="12" height="1" fill="hsla(320,80%,55%,.24)"/><rect x="621" y="447" width="7" height="1" fill="hsla(150,70%,38%,.26)"/><rect x="405" y="448" width="7" height="1" fill="hsla(150,70%,38%,.26)"/><rect x="420" y="448" width="12" height="1" fill="hsla(320,80%,55%,.24)"/><rect x="432" y="448" width="15" height="1" fill="hsla(70,90%,42%,.32)"/><rect x="548" y="448" width="9" height="1" fill="hsla(185,90%,40%,.30)"/><rect x="557" y="448" width="8" height="1" fill="hsla(320,80%,55%,.24)"/><rect x="621" y="448" width="7" height="1" fill="hsla(150,70%,38%,.26)"/><rect x="405" y="449" width="7" height="1" fill="hsla(150,70%,38%,.26)"/><rect x="420" y="449" width="12" height="1" fill="hsla(320,80%,55%,.24)"/><rect x="432" y="449" width="15" height="1" fill="hsla(70,90%,42%,.32)"/><rect x="548" y="449" width="9" height="1" fill="hsla(185,90%,40%,.30)"/><rect x="557" y="449" width="8" height="1" fill="hsla(320,80%,55%,.24)"/><rect x="621" y="449" width="7" height="1" fill="hsla(150,70%,38%,.26)"/><rect x="405" y="450" width="7" height="1" fill="hsla(150,70%,38%,.26)"/><rect x="420" y="450" width="13" height="1" fill="hsla(320,80%,55%,.24)"/><rect x="548" y="450" width="9" height="1" fill="hsla(185,90%,40%,.30)"/><rect x="557" y="450" width="8" height="1" fill="hsla(320,80%,55%,.24)"/><rect x="621" y="450" width="7" height="1" fill="hsla(150,70%,38%,.26)"/><rect x="402" y="451" width="13" height="1" fill="hsla(150,70%,38%,.26)"/><rect x="420" y="451" width="13" height="1" fill="hsla(320,80%,55%,.24)"/><rect x="548" y="451" width="9" height="1" fill="hsla(185,90%,40%,.30)"/><rect x="557" y="451" width="8" height="1" fill="hsla(320,80%,55%,.24)"/><rect x="618" y="451" width="13" height="1" fill="hsla(150,70%,38%,.26)"/><rect x="402" y="452" width="13" height="1" fill="hsla(150,70%,38%,.26)"/><rect x="548" y="452" width="9" height="1" fill="hsla(185,90%,40%,.30)"/><rect x="618" y="452" width="13" height="1" fill="hsla(150,70%,38%,.26)"/><rect x="402" y="453" width="13" height="1" fill="hsla(150,70%,38%,.26)"/><rect x="548" y="453" width="9" height="1" fill="hsla(185,90%,40%,.30)"/><rect x="618" y="453" width="13" height="1" fill="hsla(150,70%,38%,.26)"/><rect x="402" y="454" width="13" height="1" fill="hsla(150,70%,38%,.26)"/><rect x="415" y="454" width="203" height="1" fill="hsla(150,70%,38%,.26)"/><rect x="618" y="454" width="13" height="1" fill="hsla(150,70%,38%,.26)"/><rect x="402" y="455" width="13" height="1" fill="hsla(150,70%,38%,.26)"/><rect x="415" y="455" width="203" height="1" fill="hsla(150,70%,38%,.26)"/><rect x="618" y="455" width="13" height="1" fill="hsla(150,70%,38%,.26)"/><rect x="402" y="456" width="13" height="1" fill="hsla(150,70%,38%,.26)"/><rect x="415" y="456" width="203" height="1" fill="hsla(150,70%,38%,.26)"/><rect x="618" y="456" width="13" height="1" fill="hsla(150,70%,38%,.26)"/><rect x="402" y="457" width="13" height="1" fill="hsla(150,70%,38%,.26)"/><rect x="415" y="457" width="203" height="1" fill="hsla(150,70%,38%,.26)"/><rect x="618" y="457" width="13" height="1" fill="hsla(150,70%,38%,.26)"/><rect x="402" y="458" width="13" height="1" fill="hsla(150,70%,38%,.26)"/><rect x="415" y="458" width="203" height="1" fill="hsla(150,70%,38%,.26)"/><rect x="618" y="458" width="13" height="1" fill="hsla(150,70%,38%,.26)"/><rect x="402" y="459" width="13" height="1" fill="hsla(150,70%,38%,.26)"/><rect x="415" y="459" width="203" height="1" fill="hsla(150,70%,38%,.26)"/><rect x="618" y="459" width="13" height="1" fill="hsla(150,70%,38%,.26)"/><rect x="402" y="460" width="13" height="1" fill="hsla(150,70%,38%,.26)"/><rect x="618" y="460" width="13" height="1" fill="hsla(150,70%,38%,.26)"/><rect x="402" y="461" width="13" height="1" fill="hsla(150,70%,38%,.26)"/><rect x="618" y="461" width="13" height="1" fill="hsla(150,70%,38%,.26)"/><rect x="402" y="462" width="13" height="1" fill="hsla(150,70%,38%,.26)"/><rect x="618" y="462" width="13" height="1" fill="hsla(150,70%,38%,.26)"/></g>
</svg>
